<svg xmlns="http://www.w3.org/2000/svg" viewBox="0 0 64 64" role="img" aria-labelledby="title">
  <title id="title">AutoMundo Premium</title>
  <defs>
    <linearGradient id="gold" x1="8" y1="10" x2="56" y2="54" gradientUnits="userSpaceOnUse">
      <stop stop-color="#E4C98A"/>
      <stop offset="1" stop-color="#B88737"/>
    </linearGradient>
  </defs>
  <rect x="2" y="2" width="60" height="60" rx="17" fill="#11151C" stroke="#2D333D" stroke-width="2"/>
  <path d="M14 35.5c2.8-1.1 5.1-3.5 6.4-6.5l1.2-2.8c1.1-2.5 3.5-4.2 6.3-4.2h8.2c2.8 0 5.2 1.7 6.3 4.2l1.2 2.8c1.3 3 3.6 5.4 6.4 6.5" fill="none" stroke="url(#gold)" stroke-width="3" stroke-linecap="round"/>
  <path d="M13 36h38c1.7 0 3 1.3 3 3v4.5c0 1.4-1.1 2.5-2.5 2.5h-2.8M15.3 46h-2.8A2.5 2.5 0 0 1 10 43.5V39c0-1.7 1.3-3 3-3Z" fill="none" stroke="url(#gold)" stroke-width="3" stroke-linecap="round" stroke-linejoin="round"/>
  <path d="M18 40h7m14 0h7" stroke="#F6F3EC" stroke-width="3" stroke-linecap="round"/>
  <circle cx="19" cy="46" r="3" fill="#11151C" stroke="url(#gold)" stroke-width="2.5"/>
  <circle cx="45" cy="46" r="3" fill="#11151C" stroke="url(#gold)" stroke-width="2.5"/>
</svg>
